<svg xmlns="http://www.w3.org/2000/svg" viewBox="0 0 25.98 26.12"><defs><style>.cls-1{fill:#00acab;}</style></defs><g id="Ebene_2" data-name="Ebene 2"><g id="Ebene_1-2" data-name="Ebene 1"><g id="icon"><path class="cls-1" d="M5.47,26.12a3.24,3.24,0,0,1-2.3-1L1,23a3.38,3.38,0,0,1-1-1.94A3.24,3.24,0,0,1,1,18.34l7.86-7.89a8.73,8.73,0,0,1-.14-1.54,7.51,7.51,0,0,1,2.5-6.06C13.4.62,17.06-.93,20.24.63a2.28,2.28,0,0,1,1.25,1.68,2.34,2.34,0,0,1,0,.38,2.25,2.25,0,0,1-.66,1.61L17,8.3l.81.79,3.84-4a2.32,2.32,0,0,1,2-.65,2.28,2.28,0,0,1,1.68,1.25c1.5,2.52.13,7.08-2.07,9.29a8.35,8.35,0,0,1-7.7,2.35L7.83,25.1a3.4,3.4,0,0,1-1.94,1A3,3,0,0,1,5.47,26.12ZM17.46,2a7.29,7.29,0,0,0-4.87,2.26,5.58,5.58,0,0,0-1.92,4.65,6.78,6.78,0,0,0,.2,1.62l.14.55L2.37,19.75A1.26,1.26,0,0,0,2,20.81a1.32,1.32,0,0,0,.42.77l2.16,2.17a1.24,1.24,0,0,0,1,.36,1.51,1.51,0,0,0,.78-.42L15,15.12l.55.15a6.36,6.36,0,0,0,6.35-1.71h0c1.78-1.78,2.67-5.34,1.72-6.92-.08-.16-.16-.21-.25-.23a.27.27,0,0,0-.25.08l-4,4.16a1.77,1.77,0,0,1-1.24.54,1.67,1.67,0,0,1-1.25-.5L15.38,9.51a1.68,1.68,0,0,1,0-2.36L19.43,2.9a.29.29,0,0,0,.09-.21.31.31,0,0,0-.16-.26A4.25,4.25,0,0,0,17.46,2Z"/></g></g></g></svg>