<?xml version="1.0" encoding="utf-8"?>
<!-- Generator: Adobe Illustrator 25.1.0, SVG Export Plug-In . SVG Version: 6.00 Build 0)  -->
<svg version="1.1" id="Ebene_1" xmlns="http://www.w3.org/2000/svg" xmlns:xlink="http://www.w3.org/1999/xlink" x="0px" y="0px"
	 viewBox="0 0 24.4 28.9" style="enable-background:new 0 0 24.4 28.9;" xml:space="preserve">
<style type="text/css">
	.st0{fill:#494949;}
</style>
<g id="Ebene_2_1_">
	<g id="Ebene_1-2">
		<g id="reply">
			<path id="reply-2" class="st0" d="M19.8,2c1,0,1.8,0.8,1.8,1.8l0,0c0,0.5-0.2,0.9-0.5,1.2l-3.9,4c6.2,5.5,5.5,10.4,4.9,12.4
				C21,24.7,18,26.9,14.6,27c-1,0-1.8-0.8-1.8-1.8c0-0.2,0-0.4,0.1-0.6c0.9-2.7,0.5-4.8-1.2-6.5c-0.6-0.6-1.3-1.1-2-1.5L5,21.1
				c-0.7,0.7-1.8,0.7-2.5,0C2.2,20.7,2,20.3,2,19.8v-16C2,2.8,2.8,2,3.8,2l0,0H19.8 M19.8,0h-16C1.7,0,0,1.7,0,3.8v16
				c0,1,0.4,2,1.1,2.7s1.7,1.1,2.7,1.1s2-0.4,2.7-1.1l3.3-3.3l0.4,0.3c0.8,0.8,1.6,2,0.8,4.5c-0.1,0.4-0.2,0.8-0.2,1.2
				c0,2.1,1.7,3.8,3.8,3.8l0,0c4.3-0.1,8-2.8,9.4-6.9c0.7-2.1,1.6-7.3-3.9-13l2.5-2.5c0.7-0.7,1.1-1.7,1.1-2.7s-0.4-2-1.1-2.7
				C21.8,0.4,20.8,0,19.8,0L19.8,0z"/>
		</g>
	</g>
</g>
</svg>
