<svg xmlns="http://www.w3.org/2000/svg" viewBox="0 0 24.4 28.92"><defs><style>.cls-1{fill:#00adac;}</style></defs><g id="Ebene_2" data-name="Ebene 2"><g id="Ebene_1-2" data-name="Ebene 1"><g id="reply"><path id="reply-2" class="cls-1" d="M19.8,2a1.78,1.78,0,0,1,1.78,1.78A1.81,1.81,0,0,1,21.06,5L17.13,9c6.23,5.46,5.51,10.38,4.86,12.36a8.13,8.13,0,0,1-7.53,5.58,1.78,1.78,0,0,1-1.69-2.34c.89-2.67.49-4.8-1.24-6.53a8.22,8.22,0,0,0-2-1.48L5,21.06a1.79,1.79,0,0,1-2.52,0A1.81,1.81,0,0,1,2,19.8v-16A1.78,1.78,0,0,1,3.78,2h16m0-2h-16A3.79,3.79,0,0,0,0,3.78v16a3.72,3.72,0,0,0,1.11,2.67,3.76,3.76,0,0,0,2.67,1.11,3.72,3.72,0,0,0,2.67-1.11l3.32-3.33.35.33c.83.83,1.57,2,.75,4.47a4.07,4.07,0,0,0-.19,1.2,3.78,3.78,0,0,0,3.78,3.78A10.15,10.15,0,0,0,23.88,22c.7-2.1,1.58-7.31-3.89-13l2.48-2.5a3.76,3.76,0,0,0,1.11-2.67,3.72,3.72,0,0,0-1.11-2.67A3.72,3.72,0,0,0,19.8,0Z"/></g></g></g></svg>