<svg xmlns="http://www.w3.org/2000/svg" viewBox="0 0 35.34 31.89"><defs><style>.cls-1{fill:#00acab;}</style></defs><g id="Ebene_2" data-name="Ebene 2"><g id="Ebene_1-2" data-name="Ebene 1"><g id="_004-consult" data-name=" 004-consult"><path class="cls-1" d="M9.15,22.51l-3.59-5H2.79A2.79,2.79,0,0,1,0,14.7V2.79A2.79,2.79,0,0,1,2.79,0H23a2.79,2.79,0,0,1,2.79,2.79v11.9A2.79,2.79,0,0,1,23,17.48H9.15ZM2.79,2A.79.79,0,0,0,2,2.79V14.7a.78.78,0,0,0,.79.78h3a1.59,1.59,0,0,1,1.3.67l.22.3a1.58,1.58,0,0,1,1.46-1H23a.79.79,0,0,0,.79-.79V2.79A.79.79,0,0,0,23,2Z"/><path class="cls-1" d="M23.82,31.89V27.61H13.5a2.79,2.79,0,0,1-2.78-2.79V18.87h2v5.95a.79.79,0,0,0,.78.79H24.22a1.59,1.59,0,0,1,1.45.93l.3-.36a1.59,1.59,0,0,1,1.23-.58h5.36a.78.78,0,0,0,.78-.78V14.1a.79.79,0,0,0-.78-.79H27.2v-2h5.36a2.79,2.79,0,0,1,2.78,2.79V24.82a2.79,2.79,0,0,1-2.78,2.78H27.39ZM27.2,27.6Z"/></g><g id="_010-startup" data-name=" 010-startup"><g id="Gruppe_148" data-name="Gruppe 148"><g id="Gruppe_147" data-name="Gruppe 147"><path class="cls-1" d="M14.51,8.07a1.31,1.31,0,0,1-.95-.4,1.35,1.35,0,1,1,1.92,0h0A1.31,1.31,0,0,1,14.51,8.07Zm0-1.71a.35.35,0,0,0-.25.6.36.36,0,0,0,.51,0h0a.36.36,0,0,0,.1-.25.39.39,0,0,0-.1-.25A.35.35,0,0,0,14.51,6.36Z"/></g></g><g id="Gruppe_150" data-name="Gruppe 150"><g id="Gruppe_149" data-name="Gruppe 149"><path class="cls-1" d="M11.78,14.32l.49-.93a1.84,1.84,0,0,0,.14-1.26l-1.77.33a.55.55,0,0,1-.22,0c-.32,1.44-1.85,1.58-2.52,1.64l-.25,0-.66.1.12-.86c.08-.69.27-2.28,1.62-2.57A5,5,0,0,1,9,9.23l.11-.39A2.35,2.35,0,0,0,7.84,9l-.93.49.21-1A3.75,3.75,0,0,1,8.76,5.91a2,2,0,0,1,2,.09l.1.06c.21-.24.42-.48.65-.71A9.27,9.27,0,0,1,15,3.23l.12,0h0l.82-.25a10,10,0,0,1,2.28-.44l.61-.06L18.74,3a10,10,0,0,1-.41,2.19L18.1,6h0V6h0L18,6.26a9.5,9.5,0,0,1-2.12,3.42h0c-.23.23-.47.44-.72.65l.07.1a2.05,2.05,0,0,1,.1,2h0a3.79,3.79,0,0,1-2.51,1.65Zm-2.94-2.5c-.38.15-.57.61-.68,1.26.67-.09,1.08-.26,1.24-.69Zm4.6.35a2.15,2.15,0,0,1,0,.67,2.28,2.28,0,0,0,1-.84,1.06,1.06,0,0,0,.11-.49A12.47,12.47,0,0,1,13.44,12.17Zm-2.65-.58h0Zm-.34-.11Zm-.71-1,.91.93.19,0L9.78,10.35C9.77,10.41,9.75,10.47,9.74,10.51Zm.61-1.82,2.18,2.18a10.68,10.68,0,0,0,1.86-1.19,10.27,10.27,0,0,0,.78-.7,8.31,8.31,0,0,0,1.77-2.76L15,4.28a8.43,8.43,0,0,0-2.77,1.78,8.72,8.72,0,0,0-.69.78A10.1,10.1,0,0,0,10.35,8.69Zm-.65-2a1,1,0,0,0-.47.11,2.23,2.23,0,0,0-.86,1,3.74,3.74,0,0,1,.67,0,11.66,11.66,0,0,1,.68-1.13Zm7.36-3,.52.49a5.58,5.58,0,0,0,.09-.59Z"/></g></g></g><rect class="cls-1" x="14.7" y="18.46" width="16.67" height="2"/><rect class="cls-1" x="27.63" y="14.86" width="3.57" height="2"/><rect class="cls-1" x="14.72" y="22.03" width="16.67" height="2"/></g></g></svg>