<svg xmlns="http://www.w3.org/2000/svg" viewBox="0 0 14.57 26.65"><defs><style>.cls-1{fill:#00acab;}</style></defs><g id="Ebene_2" data-name="Ebene 2"><g id="Ebene_1-2" data-name="Ebene 1"><path class="cls-1" d="M10.86,26.65H3.3a1,1,0,0,1-1-1V19.3L.05,12.7a1,1,0,0,1,.07-.8L6.32.52a1,1,0,0,1,1.75,0l6.37,11.38a1,1,0,0,1,.05.86l-2.63,6.58v6.32A1,1,0,0,1,10.86,26.65Zm-6.56-2H9.86V19.13a1,1,0,0,1,.07-.37l2.53-6.31L7.21,3.07l-5.12,9.4,2.16,6.34a1.19,1.19,0,0,1,0,.32Z"/><path class="cls-1" d="M10.57,22.14H3.69a1.72,1.72,0,1,1,0-3.44h6.88a1.72,1.72,0,1,1,0,3.44Z"/><path class="cls-1" d="M7.2,13.38a1,1,0,0,1-1-1V1.65a1,1,0,0,1,1-1h0a1,1,0,0,1,1,1V12.38a1,1,0,0,1-1,1Z"/><circle class="cls-1" cx="7.2" cy="12.38" r="1.69"/></g></g></svg>