<svg xmlns="http://www.w3.org/2000/svg" viewBox="0 0 36.81 28.31"><defs><style>.cls-1{fill:#00acab;}</style></defs><g id="Ebene_2" data-name="Ebene 2"><g id="Ebene_1-2" data-name="Ebene 1"><path class="cls-1" d="M32.26,28.31H4.55A4.55,4.55,0,0,1,0,23.76V4.55A4.55,4.55,0,0,1,4.55,0H32.26a4.57,4.57,0,0,1,4.55,4.55V23.76A4.57,4.57,0,0,1,32.26,28.31ZM4.55,2A2.56,2.56,0,0,0,2,4.55V23.76a2.55,2.55,0,0,0,2.55,2.55H32.26a2.55,2.55,0,0,0,2.55-2.55V4.55A2.56,2.56,0,0,0,32.25,2Z"/><path class="cls-1" d="M14.78,23.13a.92.92,0,0,1-.36-.07,1,1,0,0,1-.57-1.29L20.49,5a1,1,0,0,1,1.86.73L15.71,22.5A1,1,0,0,1,14.78,23.13Z"/><path class="cls-1" d="M24.92,22a1,1,0,0,1-.66-1.75l6.27-5.56a.42.42,0,0,0,0-.14.26.26,0,0,0-.08-.18L24.22,8.07a1,1,0,0,1,0-1.42,1,1,0,0,1,1.41,0l6.27,6.27a2.25,2.25,0,0,1,0,3.18l-6.31,5.6A1,1,0,0,1,24.92,22Z"/><path class="cls-1" d="M11.56,22a1,1,0,0,0,.67-1.75L6,14.65a.42.42,0,0,1,0-.14A.26.26,0,0,1,6,14.33l6.26-6.26a1,1,0,0,0,0-1.42,1,1,0,0,0-1.41,0L4.59,12.92a2.25,2.25,0,0,0,0,3.18l6.31,5.6A1,1,0,0,0,11.56,22Z"/></g></g></svg>