<?xml version="1.0" encoding="utf-8"?>
<!-- Generator: Adobe Illustrator 25.1.0, SVG Export Plug-In . SVG Version: 6.00 Build 0)  -->
<svg version="1.1" id="Ebene_1" xmlns="http://www.w3.org/2000/svg" xmlns:xlink="http://www.w3.org/1999/xlink" x="0px" y="0px"
	 viewBox="0 0 279 45.9" style="enable-background:new 0 0 279 45.9;" xml:space="preserve">
<style type="text/css">
	.st0{fill:#00ACAB;}
</style>
<g id="Schatten">
</g>
<g id="Inline">
</g>
<g id="Outline">
	<path id="Pfad_304" class="st0" d="M4.8,41.6H29v-7.8l-5.2-5.2H12.9v-2.2H26v-6.7l-5.2-5.2h-7.9v-1.9h15.4V6.3l-5.2-5.2H-0.4v35.3
		L4.8,41.6z M0.5,35.7V2h22v6.1H7.3v7.3h12.8v6.3H7.3v7.8h15.8v6.2L0.5,35.7L0.5,35.7z M47.1,41.6h8.6L69.2,5.9l-4.7-4.8h-9.5
		l-5.5,17.2L45.3,6.2l-6.9-5.1h-9.7L42,36.4L47.1,41.6z M42.7,35.7L29.9,2h8l9.4,26.4L55.7,2h8L51,35.7H42.7z M76.7,41.6h24.2v-7.8
		l-5.2-5.2H84.8v-2.2h13.1v-6.7l-5.2-5.2h-7.9v-1.9h15.4V6.3l-5.2-5.2H71.5v35.3L76.7,41.6z M72.4,35.7V2h22v6.1H79.2v7.3H92v6.3
		H79.2v7.8H95v6.2L72.4,35.7L72.4,35.7z M110.2,41.6h8.2V29.6h0.9c1.8,0,3.1,4.8,3.5,6.9c2.7,11.5,17.7,10.5,18,0.2
		c-2.3,2.1-6,1.2-6.1-5.5c-0.1-2.2-1.4-3.3-2.6-4.5c2.9-2,4.7-5.2,4.8-8.8c0-3.5-1.2-6-4.1-8.9l-3.8-3.9c-2.8-2.7-6.5-4.5-10.4-4.4
		h-14v35.5L110.2,41.6z M105.5,35.7v-34h13.1c7.2,0,12.4,4.9,12.5,11.3c0,4-2.4,7.9-6.4,10.1c0.8,0.8,1.4,1.8,1.6,3
		c1.1,6.1,3.8,7,6.3,4.8c0,8.1-8.9,6.9-10.1,2c-0.8-3.4-1.7-8.4-4.9-8.4h-5.3v11.2L105.5,35.7z M112.4,19h6.2c3,0.1,5.5-2.2,5.6-5.2
		s-2.2-5.8-5.2-6c-0.1,0-0.2,0-0.3,0h-6.4V19z M117.5,18.1v-5h5.8c0,0.1,0,0.3,0,0.4c0,2.5-2,4.5-4.5,4.5c-0.1,0-0.2,0-0.2,0H117.5z
		 M146.4,41.6h23.4v-8l-5.2-5.2H155V6.3l-5.4-5.2h-8.4v35.3L146.4,41.6z M142.1,35.7V2h6.9v27.3h15v6.5L142.1,35.7z M175.2,41.6h8.1
		l2.4-6.9h11l0.6,1.8l6.1,5.1h9.8L200.1,6.2l-6.7-5.1h-9.9l-13.1,35.2L175.2,41.6z M171.6,35.7L184.1,2h8.9l12.6,33.8H198l-2.4-6.9
		h-14.3l-2.4,6.9H171.6z M183.1,22.9H194l-5.4-14.7L183.1,22.9z M189.6,22l1.5-4.2l1.6,4.2H189.6z M218.8,41.6h15.3
		c7,0,12.1-4.5,12.1-10.7c0-2.5-0.9-5-2.7-6.8l-1.3-1.3c1.7-1.7,2.6-4,2.6-6.5c0.1-2.8-1-5.5-3-7.4l-4.5-4.5
		c-2.3-2.2-5.3-3.3-8.4-3.3h-15.2l-0.1,35.3L218.8,41.6z M214.5,35.7L214.6,2h14.4c5.8,0,10.4,3.8,10.4,9.4c0,2.6-1.3,5-3.7,6.8
		c3.2,1.6,5.1,4.3,5.1,7.5c0,5.7-4.6,10-10.7,10L214.5,35.7z M220.9,15.9h7.4c2.2,0.1,4.1-1.7,4.2-3.9c0-0.1,0-0.1,0-0.2
		c0.1-2.2-1.7-4-3.9-4.1c-0.1,0-0.2,0-0.3,0h-7.4L220.9,15.9z M225.8,15v-2.7h5.8c-0.2,1.6-1.6,2.7-3.2,2.7H225.8z M220.9,30h8
		c2.8,0,4.9-1.9,4.9-4.4c0-2.6-2-4.4-4.9-4.4h-8V30z M225.8,29.2v-3.3h7.1c-0.1,1.9-1.8,3.3-4,3.3H225.8z M265,42.1
		c8,0,13.6-4.8,13.6-11.7c0.1-2.8-1-5.4-2.9-7.4l-3.5-3.5c-2.6-2.7-6.6-4.1-10-5c1-0.9,2.8-1.4,4.9-1.4c3,0,7,1.6,9.7,3.3V7.7
		l-5.1-5.1c-3.1-1.4-6.5-2.1-9.9-2.1c-8,0-13.5,4.7-13.5,11.5c-0.1,2.2,0.6,4.3,2,6l2.2,2.5c2.8,3.2,3.8,4.5,7.6,5.9
		c1.2,0.5,2.6,0.9,3.9,1.4c-1.4,0.7-3,1-4.6,1c-4.2,0-7.4-1.4-10.7-3.4v9l5.1,5.1C257.2,41.4,261.1,42.2,265,42.1L265,42.1z
		 M260.6,36.3c-3.8,0.1-7.6-0.7-11.1-2.3v-7.1c3,1.8,6.4,2.8,9.9,2.9c4,0,6.7-1.4,6.7-3.5c0-5.5-16.9-2.9-16.9-14.2
		c0-6.3,5.1-10.6,12.6-10.6c3.1,0,6.3,0.6,9.2,1.9v6.9c-2.6-1.4-5.4-2.2-8.3-2.3c-3.9,0-6.6,1.5-6.6,3.6c0,1.7,1.9,2.7,3.9,3.3
		c3.5,1.2,8.4,2.1,11.2,5.1c1.4,1.5,2.2,3.6,2.1,5.7C273.3,31.9,268.1,36.3,260.6,36.3L260.6,36.3z"/>
</g>
</svg>
