<?xml version="1.0" encoding="utf-8"?>
<!-- Generator: Adobe Illustrator 25.1.0, SVG Export Plug-In . SVG Version: 6.00 Build 0)  -->
<svg version="1.1" xmlns="http://www.w3.org/2000/svg" xmlns:xlink="http://www.w3.org/1999/xlink" x="0px" y="0px"
	 viewBox="0 0 279 45.88" style="enable-background:new 0 0 279 45.88;" xml:space="preserve">
<style type="text/css">
	.st0{fill:#00ACAB;}
</style>
<g id="Schatten">
</g>
<g id="Inline">
</g>
<g id="Outline">
	<path id="Pfad_304" class="st0" d="M5.2,41.06h24.18v-7.75l-5.2-5.2H13.29v-2.25h13.07V19.2l-5.2-5.2h-7.87v-1.95h15.39V5.79
		l-5.2-5.2H0v35.27L5.2,41.06z M0.89,35.24V1.49h21.98v6.14H7.72v7.28h12.82v6.34H7.72v7.77h15.84v6.24H0.89z M47.5,41.06h8.64
		L69.55,5.37L64.9,0.59h-9.46l-5.49,17.23L45.67,5.69l-6.91-5.1h-9.73l13.34,35.34L47.5,41.06z M43.04,35.24L30.32,1.49h7.99
		l9.36,26.41l8.41-26.41h7.99L51.36,35.24H43.04z M77.05,41.06h24.18v-7.75l-5.2-5.2H85.14v-2.25h13.07V19.2l-5.2-5.2h-7.87v-1.95
		h15.39V5.79l-5.2-5.2H71.85v35.27L77.05,41.06z M72.74,35.24V1.49h21.98v6.14H79.58v7.28H92.4v6.34H79.58v7.77h15.84v6.24H72.74z
		 M110.61,41.06h8.22V29.13l0.89,0c1.81-0.02,3.09,4.79,3.54,6.9c2.67,11.48,17.74,10.53,17.99,0.22c-1.07,0.88-2.83,0.03-2.83,0.03
		c-2.04-1.2-3-3.14-3.28-5.55c-0.06-2.17-1.36-3.3-2.63-4.45c2.94-1.98,4.73-5.25,4.83-8.79c0-3.47-1.16-5.97-4.06-8.89l-3.84-3.86
		c-2.76-2.73-6.51-4.23-10.4-4.16h-14.01v35.29L110.61,41.06z M105.93,35.25V1.49h13.12c7.2,0,12.45,4.68,12.47,11.04
		c0,4.01-2.43,7.85-6.36,10.07c0.83,0.81,1.39,1.81,1.64,3.01c0.38,1.86,0.81,3.54,2.49,4.56c0,0,0.97,0.65,2.77,0.27
		c0,8.13-7.87,6.89-9.05,2.05c-0.82-3.38-1.72-8.43-4.91-8.43h-5.35v11.19L105.93,35.25z M112.76,18.46h6.19
		c2.98,0.14,5.5-2.17,5.64-5.15c0.14-2.98-2.17-5.5-5.15-5.64c-0.11,0-0.21-0.01-0.32-0.01h-6.36L112.76,18.46z M117.84,17.57v-4.95
		h5.84c0.02,0.15,0.03,0.3,0.02,0.45c-0.01,2.5-2.03,4.52-4.53,4.51c-0.07,0-0.15,0-0.22-0.01L117.84,17.57z M146.74,41.06h23.44
		v-7.99l-5.2-5.2h-9.55V5.77l-5.45-5.17h-8.44v35.27L146.74,41.06z M142.44,35.24V1.49h6.93v27.28h15v6.48L142.44,35.24z
		 M175.55,41.06h8.14l2.4-6.93h10.99l0.64,1.83l6.11,5.1h9.78L200.48,5.69l-6.66-5.1h-9.95l-13.05,35.2L175.55,41.06z M171.97,35.24
		l12.55-33.76h8.86l12.55,33.76h-7.5l-2.4-6.93h-14.26l-2.4,6.93L171.97,35.24z M183.45,22.42h10.92L188.92,7.7L183.45,22.42z
		 M190.01,21.53l1.51-4.23l1.56,4.23H190.01z M219.14,41.06h15.32c7,0,12.13-4.5,12.13-10.69c0.04-2.55-0.94-5.01-2.72-6.83
		l-1.29-1.26c1.67-1.74,2.61-4.05,2.62-6.46c0.06-2.78-1.01-5.47-2.97-7.45l-4.5-4.5c-2.26-2.18-5.3-3.35-8.44-3.27h-15.25
		l-0.1,35.27L219.14,41.06z M214.84,35.24l0.1-33.76h14.35c5.84,0,10.35,3.79,10.35,9.41c0,2.6-1.29,5-3.69,6.81
		c3.24,1.61,5.07,4.33,5.07,7.5c0,5.74-4.58,10.05-10.74,10.05L214.84,35.24z M221.32,15.39h7.42c2.22,0.08,4.08-1.66,4.16-3.88
		c0-0.08,0-0.15,0-0.23c0.07-2.2-1.67-4.04-3.87-4.11c-0.1,0-0.19,0-0.29,0h-7.43L221.32,15.39z M226.15,14.5v-2.67h5.82
		c-0.23,1.59-1.62,2.74-3.22,2.67L226.15,14.5z M221.32,29.55h8.02c2.77,0,4.85-1.88,4.85-4.41c0-2.62-1.98-4.41-4.85-4.41h-8.02
		V29.55z M226.15,28.66v-3.27h7.15c-0.12,1.88-1.76,3.27-3.96,3.27L226.15,28.66z M265.38,41.65c7.99,0,13.61-4.8,13.61-11.68
		c0.08-2.76-0.97-5.44-2.92-7.4l-3.47-3.54c-2.62-2.67-6.63-4.06-10-5.02c0.99-0.87,2.77-1.36,4.85-1.36c2.97,0,7.03,1.63,9.7,3.32
		V7.23l-5.13-5.12c-3.1-1.38-6.46-2.1-9.85-2.1c-7.97,0-13.51,4.73-13.51,11.53c-0.1,2.18,0.62,4.32,2.03,5.99l2.18,2.52
		c2.77,3.22,3.76,4.46,7.6,5.92c1.19,0.45,2.57,0.92,3.86,1.39c-1.44,0.7-3.03,1.03-4.63,0.97c-4.18,0-7.45-1.44-10.69-3.36v9.03
		l5.1,5.1C257.59,40.86,261.47,41.75,265.38,41.65L265.38,41.65z M260.95,35.84c-3.83,0.08-7.62-0.73-11.09-2.35v-7.12
		c2.96,1.84,6.37,2.83,9.85,2.85c3.96,0,6.73-1.39,6.73-3.51c0-5.54-16.88-2.92-16.88-14.16c0-6.29,5.15-10.64,12.62-10.64
		c3.14,0.02,6.26,0.65,9.16,1.86v6.88c-2.56-1.4-5.4-2.19-8.32-2.3c-3.86,0-6.58,1.46-6.58,3.64c0,1.73,1.88,2.7,3.89,3.34
		c3.47,1.19,8.37,2.08,11.21,5.05c1.43,1.54,2.19,3.59,2.13,5.69C273.67,31.41,268.47,35.84,260.95,35.84L260.95,35.84z"/>
</g>
</svg>
