<svg xmlns="http://www.w3.org/2000/svg" viewBox="0 0 24.25 24.34"><defs><style>.cls-1{fill:#00acab;}</style></defs><g id="Ebene_2" data-name="Ebene 2"><g id="Ebene_1-2" data-name="Ebene 1"><g id="Gruppe_148" data-name="Gruppe 148"><g id="Gruppe_147" data-name="Gruppe 147"><path class="cls-1" d="M15.47,12.61a3.76,3.76,0,1,1,2.66-6.42h0a3.76,3.76,0,0,1-2.66,6.42Zm0-5.53a1.76,1.76,0,1,0,1.25,3,1.74,1.74,0,0,0,.51-1.24,1.72,1.72,0,0,0-.51-1.25l.71-.71-.71.71A1.78,1.78,0,0,0,15.47,7.08Z"/></g></g><path class="cls-1" d="M8.25,20.8a1.49,1.49,0,0,1-1-.44L3.94,17.1a1.39,1.39,0,0,1-.38-1.24C5,8.35,12.19.5,23.2,0l1.05,0V1c0,11.66-9.4,18.67-15.76,19.74ZM8.62,19Zm-3-3,2.84,2.85c4.39-.89,13.23-6.08,13.79-16.65C13,3,7,9.52,5.59,15.91Zm-.23-.23Z"/><path class="cls-1" d="M0,15.76l.41-2.4C1,9.77,2.33,7.51,4.29,6.66a5.47,5.47,0,0,1,4.77.52L10,7.8l-.71.86a16.72,16.72,0,0,0-2.8,4.47l-.3.85-.87-.21A4.7,4.7,0,0,0,2,14.34ZM6.07,8.3a2.34,2.34,0,0,0-1,.2c-1,.43-1.75,1.57-2.27,3.34a7,7,0,0,1,2.11-.13,19.43,19.43,0,0,1,2-3.29A3.29,3.29,0,0,0,6.07,8.3Z"/><rect class="cls-1" x="18.42" y="1.19" width="2" height="7.62" transform="translate(2.15 15.19) rotate(-45)"/><path class="cls-1" d="M.38,23.91l0-1C.6,17,4.6,15.85,4.77,15.8l.56-.14,3.42,3.41-.19.58c-.05.17-1.4,4.21-7.14,4.25ZM4.8,18a5,5,0,0,0-2.29,3.86A5.12,5.12,0,0,0,6.4,19.56Z"/><path class="cls-1" d="M8.58,24.34l1.42-2A4.7,4.7,0,0,0,10.57,19l-.2-.87.84-.3a16.72,16.72,0,0,0,4.47-2.8l.86-.71.62.93a5.44,5.44,0,0,1,.52,4.77c-.85,2-3.11,3.26-6.7,3.88Zm4.05-4.92a6.93,6.93,0,0,1-.13,2.11c1.78-.53,2.92-1.3,3.35-2.28a2.83,2.83,0,0,0,.07-1.83A19.43,19.43,0,0,1,12.63,19.42Z"/><rect class="cls-1" x="7.54" y="11.56" width="2" height="8.48" transform="translate(-8.67 10.67) rotate(-45)"/></g></g></svg>