<svg xmlns="http://www.w3.org/2000/svg" viewBox="0 0 28.32 28.32"><defs><style>.cls-1{fill:#00acab;}</style></defs><g id="Ebene_2" data-name="Ebene 2"><g id="Ebene_1-2" data-name="Ebene 1"><path class="cls-1" d="M14.08,8.54a2.88,2.88,0,0,1-2.87-2.87V2.87A2.88,2.88,0,0,1,14.08,0h0A2.85,2.85,0,0,1,17,2.87v2.8A2.87,2.87,0,0,1,14.08,8.54Zm0-7.54V2a.87.87,0,0,0-.87.87v2.8a.87.87,0,0,0,1.74,0V2.87a.9.9,0,0,0-.25-.62A.86.86,0,0,0,14.09,2Z"/><path class="cls-1" d="M14.08,8.54a2.88,2.88,0,0,1-2.87-2.87V2.87a2.87,2.87,0,0,1,5.74,0v2.8A2.87,2.87,0,0,1,14.08,8.54Zm0-6.54a.87.87,0,0,0-.87.87v2.8a.87.87,0,0,0,1.74,0V2.87A.87.87,0,0,0,14.08,2Z"/><path class="cls-1" d="M19.94,11.25a2.87,2.87,0,0,1-2-4.91l2-2a2.92,2.92,0,0,1,4.05,0,2.86,2.86,0,0,1,0,4.05l-2,2a2.89,2.89,0,0,1-2,.84Zm2-5.72a.89.89,0,0,0-.62.25l-2,2a.87.87,0,0,0,0,1.23.9.9,0,0,0,.62.26h0A.89.89,0,0,0,20.56,9l2-2a.87.87,0,0,0-.61-1.48Z"/><path class="cls-1" d="M20,11.25h0a2.87,2.87,0,0,1-2-4.9l2-2a2.89,2.89,0,0,1,2.78-.8,2.87,2.87,0,0,1,1.25,4.88l-2,2A2.85,2.85,0,0,1,20,11.25Zm2-5.77a.84.84,0,0,0-.63.28l-2,2a.88.88,0,0,0-.19,1A.9.9,0,0,0,20.56,9l2-2a.88.88,0,0,0,.27-.88A.88.88,0,0,0,22,5.48Z"/><path class="cls-1" d="M25.45,17.1h-2.8a2.87,2.87,0,1,1,0-5.73h2.8a2.87,2.87,0,1,1,0,5.73Zm-2.8-3.73a.87.87,0,1,0,0,1.73h2.8a.87.87,0,1,0,0-1.73Z"/><path class="cls-1" d="M25.45,17.11h-2.8a2.87,2.87,0,1,1,0-5.74h2.8a2.87,2.87,0,1,1,0,5.74Zm-2.8-3.74a.87.87,0,1,0,0,1.74h2.8a.87.87,0,1,0,0-1.74Z"/><path class="cls-1" d="M21.46,24.79a2.8,2.8,0,0,1-2-.84l-2-2a2.87,2.87,0,0,1,0-4.06,2.94,2.94,0,0,1,4.05,0l2,2a2.87,2.87,0,0,1-2,4.89Zm-2-5.72a.87.87,0,0,0-.62.26.89.89,0,0,0,0,1.23l2,2a.86.86,0,0,0,.61.25h0a.9.9,0,0,0,.62-.25.89.89,0,0,0,.25-.62.86.86,0,0,0-.25-.61l-2-2A.83.83,0,0,0,19.48,19.07Z"/><path class="cls-1" d="M21.46,24.79a2.81,2.81,0,0,1-2-.84l-2-2a2.87,2.87,0,0,1,.05-4,2.93,2.93,0,0,1,4-.07l2,2a2.87,2.87,0,0,1-2,4.89Zm-1.94-5.67a.86.86,0,0,0-.61.25.87.87,0,0,0,0,1.21l2,2a.87.87,0,0,0,1.22-1.23l-2-2A.81.81,0,0,0,19.52,19.12Z"/><path class="cls-1" d="M13.93,28.31a2.87,2.87,0,0,1-2.87-2.86V22.64a2.87,2.87,0,0,1,2.87-2.86h0a2.87,2.87,0,0,1,2.87,2.87v2.8A2.87,2.87,0,0,1,13.93,28.31Zm0-7.53v1a.87.87,0,0,0-.87.86v2.81a.87.87,0,0,0,1.74,0v-2.8a.87.87,0,0,0-.87-.87Z"/><path class="cls-1" d="M13.93,28.32a2.88,2.88,0,0,1-2.87-2.87v-2.8a2.87,2.87,0,0,1,5.74,0v2.8A2.88,2.88,0,0,1,13.93,28.32Zm0-6.54a.87.87,0,0,0-.87.87v2.8a.87.87,0,0,0,1.74,0v-2.8A.87.87,0,0,0,13.93,21.78Z"/><path class="cls-1" d="M6.4,24.74h0a2.87,2.87,0,0,1-2-4.9l2-2a2.87,2.87,0,1,1,4.06,4.05l-2,2A2.89,2.89,0,0,1,6.4,24.74Zm1.36-5.47-2,2a.87.87,0,0,0,0,1.23.86.86,0,0,0,1.23,0l2-2a.83.83,0,0,0,.26-.61A.85.85,0,0,0,9,19.27a.87.87,0,0,0-1.23,0Z"/><path class="cls-1" d="M6.4,24.74a2.85,2.85,0,0,1-2-.84,2.89,2.89,0,0,1-.84-2,2.85,2.85,0,0,1,.84-2l2-2a2.93,2.93,0,0,1,4,0,2.86,2.86,0,0,1,.07,4l-2,2A2.85,2.85,0,0,1,6.4,24.74Zm1.93-5.68a.87.87,0,0,0-.59.24l-2,1.95a.9.9,0,0,0-.25.62.86.86,0,0,0,.25.61.89.89,0,0,0,1.23,0l2-2a.86.86,0,0,0,0-1.18A.87.87,0,0,0,8.33,19.06Z"/><path class="cls-1" d="M5.68,17.21H2.87a2.87,2.87,0,0,1,0-5.74H5.68a2.87,2.87,0,0,1,2.86,2.87h0A2.87,2.87,0,0,1,5.68,17.21ZM2.87,13.47a.87.87,0,1,0,0,1.74h2.8a.87.87,0,0,0,.87-.86h0a.86.86,0,0,0-.86-.87Z"/><path class="cls-1" d="M5.67,17.21H2.87a2.87,2.87,0,0,1,0-5.74h2.8a2.87,2.87,0,0,1,0,5.74Zm-2.8-3.74a.87.87,0,1,0,0,1.74h2.8a.87.87,0,1,0,0-1.74Z"/><path class="cls-1" d="M8.23,11.5a2.85,2.85,0,0,1-2-.84h0l-2-2A2.87,2.87,0,0,1,8.27,4.62l2,2a2.85,2.85,0,0,1,.84,2,2.81,2.81,0,0,1-.84,2,2.85,2.85,0,0,1-2,.84ZM7.61,9.25a.89.89,0,0,0,.62.25h0a.86.86,0,0,0,.61-.25.9.9,0,0,0,.25-.62A.86.86,0,0,0,8.84,8l-2-2A.87.87,0,0,0,5.63,6a.86.86,0,0,0,0,1.22Z"/><path class="cls-1" d="M8.22,11.5h0a2.85,2.85,0,0,1-2-.84l-2-2a2.87,2.87,0,0,1,0-4,2.93,2.93,0,0,1,4-.07l2,2a2.87,2.87,0,0,1-2,4.9ZM6.29,5.83a.9.9,0,0,0-.62.25.87.87,0,0,0,0,1.21l2,2a.86.86,0,0,0,.61.25h0a.89.89,0,0,0,.62-.25.9.9,0,0,0,.25-.62A.86.86,0,0,0,8.84,8l-2-2A.8.8,0,0,0,6.29,5.83Z"/></g></g></svg>