<svg xmlns="http://www.w3.org/2000/svg" viewBox="0 0 17.97 28.82"><defs><style>.cls-1{fill:#00acab;}</style></defs><g id="Ebene_2" data-name="Ebene 2"><g id="Ebene_1-2" data-name="Ebene 1"><g id="Pfad_284" data-name="Pfad 284"><path class="cls-1" d="M10.53,28.82H7.29A12.26,12.26,0,0,1,3,28.26,4.6,4.6,0,0,1,.89,26.74,4.45,4.45,0,0,1,0,24a15,15,0,0,1,1.27-5.07,24.71,24.71,0,0,1,1.63-3.3A8.91,8.91,0,0,1,.69,12.44a9,9,0,0,1,3-10.74A9,9,0,0,1,9,0V2A7,7,0,0,0,4.8,14.58l.75.56L5,15.92a22.49,22.49,0,0,0-1.92,3.73A13,13,0,0,0,2,24a2.51,2.51,0,0,0,.48,1.57,2.68,2.68,0,0,0,1.24.86,10.8,10.8,0,0,0,3.57.43h3.24a10.84,10.84,0,0,0,3.57-.43,2.74,2.74,0,0,0,1.24-.86A2.51,2.51,0,0,0,15.82,24a13,13,0,0,0-1.11-4.28A23.2,23.2,0,0,0,12.82,16l-.51-.79.77-.56A7,7,0,0,0,14.29,4.45a6.92,6.92,0,0,0-4.22-2.36A6.68,6.68,0,0,0,9,2V0a9.33,9.33,0,0,1,1.4.11A9,9,0,0,1,18,9a9.09,9.09,0,0,1-1.37,4.78A8.83,8.83,0,0,1,15,15.68a24.5,24.5,0,0,1,1.59,3.25,14.78,14.78,0,0,1,1.26,5,4.45,4.45,0,0,1-.89,2.78,4.66,4.66,0,0,1-2.13,1.52A12.29,12.29,0,0,1,10.53,28.82Z"/></g></g></g></svg>